<?xml version="1.0" encoding="UTF-8"?>
<svg id="Layer_1" xmlns="http://www.w3.org/2000/svg" version="1.1" viewBox="0 0 2436 2436">
  <!-- Generator: Adobe Illustrator 29.8.2, SVG Export Plug-In . SVG Version: 2.1.1 Build 3)  -->
  <defs>
    <style>
      .st0 {
        fill: #fc0;
      }

      .st1 {
        fill: #2b26ef;
      }
    </style>
  </defs>
  <rect class="st0" x="1944.61" y="1095.81" width="256.89" height="256.89"/>
  <g>
    <path class="st1" d="M234.5,1088.48h111.02c65.5,0,107.69,33.67,107.69,91.04v.74c0,61.06-47,93.25-111.38,93.25h-35.53v74.01h-71.79v-259.04ZM340.34,1217.26c25.53,0,41.08-13.32,41.08-33.68v-.74c0-22.2-15.54-34.05-41.45-34.05h-33.67v68.46h34.05Z"/>
    <path class="st1" d="M495.37,1088.48h122.49c39.6,0,66.98,10.36,84.37,28.12,15.17,14.8,22.94,34.79,22.94,60.32v.74c0,39.6-21.09,65.87-53.29,79.56l61.8,90.29h-82.89l-52.18-78.45h-31.45v78.45h-71.79v-259.04ZM614.53,1212.82c24.42,0,38.48-11.84,38.48-30.72v-.74c0-20.35-14.8-30.72-38.85-30.72h-47v62.17h47.37Z"/>
    <path class="st1" d="M756.7,1218.74v-.74c0-74.38,59.95-134.7,139.88-134.7s139.14,59.58,139.14,133.96v.74c0,74.38-59.95,134.7-139.88,134.7s-139.14-59.58-139.14-133.96ZM962.45,1218.74v-.74c0-37.38-27.01-69.94-66.61-69.94s-65.5,31.82-65.5,69.2v.74c0,37.38,27.01,69.94,66.24,69.94s65.87-31.82,65.87-69.2Z"/>
    <path class="st1" d="M1079.56,1088.48h111.02c65.5,0,107.69,33.67,107.69,91.04v.74c0,61.06-47,93.25-111.38,93.25h-35.53v74.01h-71.79v-259.04ZM1185.4,1217.26c25.53,0,41.08-13.32,41.08-33.68v-.74c0-22.2-15.54-34.05-41.45-34.05h-33.67v68.46h34.05Z"/>
    <path class="st1" d="M1339.81,1088.48h208.34v61.06h-137.29v39.22h124.34v56.62h-124.34v41.08h139.14v61.06h-210.19v-259.04Z"/>
    <path class="st1" d="M1600.1,1088.48h122.49c39.6,0,66.98,10.36,84.38,28.12,15.17,14.8,22.94,34.79,22.94,60.32v.74c0,39.6-21.09,65.87-53.29,79.56l61.8,90.29h-82.89l-52.18-78.45h-31.46v78.45h-71.79v-259.04ZM1719.25,1212.82c24.42,0,38.48-11.84,38.48-30.72v-.74c0-20.35-14.8-30.72-38.85-30.72h-47v62.17h47.37Z"/>
  </g>
</svg>